<svg width="26" height="27" viewBox="0 0 26 27" fill="none" xmlns="http://www.w3.org/2000/svg">
<rect width="24" height="24" transform="translate(0.861588)" fill="white"/>
<g filter="url(#filter0_diii_625_11686)">
<path d="M11.9788 3C16.4619 3 20.0967 6.63415 20.0969 11.1172C20.0969 12.9771 19.4693 14.6898 18.4173 16.0586L21.551 19.1924C21.9645 19.6059 21.9645 20.276 21.551 20.6895C21.1375 21.1029 20.4674 21.1029 20.054 20.6895L16.9202 17.5557C15.5514 18.6078 13.8387 19.2354 11.9788 19.2354C7.49573 19.2351 3.86159 15.6003 3.86159 11.1172C3.86183 6.6343 7.49588 3.00024 11.9788 3ZM11.9788 5.11719C8.66543 5.11743 5.97902 7.80384 5.97878 11.1172C5.97878 14.4307 8.66528 17.1169 11.9788 17.1172C13.5951 17.1172 15.0611 16.4768 16.1399 15.4375C16.1633 15.4086 16.1892 15.3814 16.2161 15.3545C16.2429 15.3277 16.2702 15.3017 16.2991 15.2783C17.3384 14.1995 17.9788 12.7335 17.9788 11.1172C17.9785 7.80369 15.2923 5.11719 11.9788 5.11719Z" fill="#AEAEB7"/>
</g>
<defs>
<filter id="filter0_diii_625_11686" x="1.90735e-06" y="1.06921" width="25.7227" height="25.7232" filterUnits="userSpaceOnUse" color-interpolation-filters="sRGB">
<feFlood flood-opacity="0" result="BackgroundImageFix"/>
<feColorMatrix in="SourceAlpha" type="matrix" values="0 0 0 0 0 0 0 0 0 0 0 0 0 0 0 0 0 0 127 0" result="hardAlpha"/>
<feOffset dy="1.93079"/>
<feGaussianBlur stdDeviation="1.93079"/>
<feColorMatrix type="matrix" values="0 0 0 0 0 0 0 0 0 0 0 0 0 0 0 0 0 0 0.15 0"/>
<feBlend mode="normal" in2="BackgroundImageFix" result="effect1_dropShadow_625_11686"/>
<feBlend mode="normal" in="SourceGraphic" in2="effect1_dropShadow_625_11686" result="shape"/>
<feColorMatrix in="SourceAlpha" type="matrix" values="0 0 0 0 0 0 0 0 0 0 0 0 0 0 0 0 0 0 127 0" result="hardAlpha"/>
<feOffset dy="1.93079"/>
<feGaussianBlur stdDeviation="0.965396"/>
<feComposite in2="hardAlpha" operator="arithmetic" k2="-1" k3="1"/>
<feColorMatrix type="matrix" values="0 0 0 0 1 0 0 0 0 1 0 0 0 0 1 0 0 0 0.65 0"/>
<feBlend mode="normal" in2="shape" result="effect2_innerShadow_625_11686"/>
<feColorMatrix in="SourceAlpha" type="matrix" values="0 0 0 0 0 0 0 0 0 0 0 0 0 0 0 0 0 0 127 0" result="hardAlpha"/>
<feOffset dy="-1.93079"/>
<feGaussianBlur stdDeviation="0.965396"/>
<feComposite in2="hardAlpha" operator="arithmetic" k2="-1" k3="1"/>
<feColorMatrix type="matrix" values="0 0 0 0 0 0 0 0 0 0 0 0 0 0 0 0 0 0 0.42 0"/>
<feBlend mode="normal" in2="effect2_innerShadow_625_11686" result="effect3_innerShadow_625_11686"/>
<feColorMatrix in="SourceAlpha" type="matrix" values="0 0 0 0 0 0 0 0 0 0 0 0 0 0 0 0 0 0 127 0" result="hardAlpha"/>
<feOffset dy="0.965396"/>
<feGaussianBlur stdDeviation="0.482698"/>
<feComposite in2="hardAlpha" operator="arithmetic" k2="-1" k3="1"/>
<feColorMatrix type="matrix" values="0 0 0 0 1 0 0 0 0 1 0 0 0 0 1 0 0 0 0.45 0"/>
<feBlend mode="normal" in2="effect3_innerShadow_625_11686" result="effect4_innerShadow_625_11686"/>
</filter>
</defs>
</svg>
