<svg width="24" height="27" viewBox="0 0 24 27" fill="none" xmlns="http://www.w3.org/2000/svg">
<rect width="24" height="24" fill="white"/>
<g filter="url(#filter0_diii_625_11714)">
<path fill-rule="evenodd" clip-rule="evenodd" d="M10.0017 18.5106C10.443 18.2546 11.0081 18.4048 11.2641 18.846C11.3182 18.9394 11.3959 19.0168 11.4893 19.0706C11.5828 19.1245 11.6888 19.1528 11.7967 19.1528C11.9045 19.1528 12.0105 19.1245 12.104 19.0706C12.1974 19.0168 12.2751 18.9394 12.3293 18.846C12.5852 18.4048 13.1504 18.2546 13.5916 18.5106C14.0328 18.7665 14.183 19.3317 13.927 19.7729C13.7105 20.1461 13.3998 20.4559 13.0259 20.6713C12.652 20.8866 12.2281 21 11.7967 21C11.3652 21 10.9413 20.8866 10.5674 20.6713C10.1935 20.4559 9.88278 20.1461 9.66628 19.7729C9.41034 19.3317 9.56053 18.7665 10.0017 18.5106Z" fill="#AEAEB7"/>
</g>
<g filter="url(#filter1_diii_625_11714)">
<path d="M11.8476 3.00098C12.8984 3.02006 13.925 3.32415 14.8163 3.88086C15.2755 4.16764 15.6893 4.51684 16.0488 4.91504C16.4184 5.14135 16.8259 5.49418 17.0478 5.80371L17.3388 6.71875C17.3872 9.53026 17.9189 11.2922 18.4023 12.3262C18.657 12.871 18.9042 13.2248 19.0722 13.4316C19.1564 13.5353 19.2213 13.6033 19.2587 13.6396C19.2767 13.6571 19.2887 13.6672 19.2929 13.6709C19.6303 13.9434 19.7793 15.224 19.6601 15.6836C19.5392 16.1486 19.1939 16.2304 18.7773 16.2305H4.92377C4.50697 16.2304 4.16185 15.3651 4.04095 14.8994C3.92169 14.4398 4.07061 13.9431 4.40814 13.6709C4.41246 13.6671 4.42444 13.657 4.44232 13.6396C4.47975 13.6032 4.5447 13.5353 4.62885 13.4316C4.79681 13.2248 5.04408 12.8709 5.29877 12.3262C5.77043 11.3172 6.28761 9.61503 6.35736 6.9209L6.5556 6.52539C6.54054 6.34103 6.57888 6.15026 6.67572 5.97656C7.18749 5.0587 7.93864 4.29652 8.84955 3.77246C9.7604 3.24851 10.797 2.98203 11.8476 3.00098ZM11.8134 4.93457C11.1129 4.92188 10.4217 5.09991 9.81439 5.44922C9.20709 5.79858 8.70539 6.30605 8.3642 6.91797C8.32976 6.97973 8.289 7.03594 8.24408 7.08691C8.15615 10.0362 7.58169 12.0526 6.9599 13.3828C6.93985 13.4257 6.97116 13.4756 7.01849 13.4756H16.6835C16.7305 13.4751 16.761 13.4255 16.7411 13.3828C16.1397 12.0961 15.5813 10.1673 15.4658 7.37305C15.3527 7.28773 15.2562 7.17659 15.1874 7.04199C14.8687 6.41815 14.3861 5.89265 13.7919 5.52148C13.1978 5.15042 12.5138 4.94737 11.8134 4.93457Z" fill="#AEAEB7"/>
</g>
<defs>
<filter id="filter0_diii_625_11714" x="6.17311" y="16.7016" width="11.2471" height="9.35092" filterUnits="userSpaceOnUse" color-interpolation-filters="sRGB">
<feFlood flood-opacity="0" result="BackgroundImageFix"/>
<feColorMatrix in="SourceAlpha" type="matrix" values="0 0 0 0 0 0 0 0 0 0 0 0 0 0 0 0 0 0 127 0" result="hardAlpha"/>
<feOffset dy="1.68417"/>
<feGaussianBlur stdDeviation="1.68417"/>
<feColorMatrix type="matrix" values="0 0 0 0 0 0 0 0 0 0 0 0 0 0 0 0 0 0 0.15 0"/>
<feBlend mode="normal" in2="BackgroundImageFix" result="effect1_dropShadow_625_11714"/>
<feBlend mode="normal" in="SourceGraphic" in2="effect1_dropShadow_625_11714" result="shape"/>
<feColorMatrix in="SourceAlpha" type="matrix" values="0 0 0 0 0 0 0 0 0 0 0 0 0 0 0 0 0 0 127 0" result="hardAlpha"/>
<feOffset dy="1.68417"/>
<feGaussianBlur stdDeviation="0.842083"/>
<feComposite in2="hardAlpha" operator="arithmetic" k2="-1" k3="1"/>
<feColorMatrix type="matrix" values="0 0 0 0 1 0 0 0 0 1 0 0 0 0 1 0 0 0 0.65 0"/>
<feBlend mode="normal" in2="shape" result="effect2_innerShadow_625_11714"/>
<feColorMatrix in="SourceAlpha" type="matrix" values="0 0 0 0 0 0 0 0 0 0 0 0 0 0 0 0 0 0 127 0" result="hardAlpha"/>
<feOffset dy="-1.68417"/>
<feGaussianBlur stdDeviation="0.842083"/>
<feComposite in2="hardAlpha" operator="arithmetic" k2="-1" k3="1"/>
<feColorMatrix type="matrix" values="0 0 0 0 0 0 0 0 0 0 0 0 0 0 0 0 0 0 0.42 0"/>
<feBlend mode="normal" in2="effect2_innerShadow_625_11714" result="effect3_innerShadow_625_11714"/>
<feColorMatrix in="SourceAlpha" type="matrix" values="0 0 0 0 0 0 0 0 0 0 0 0 0 0 0 0 0 0 127 0" result="hardAlpha"/>
<feOffset dy="0.842083"/>
<feGaussianBlur stdDeviation="0.421041"/>
<feComposite in2="hardAlpha" operator="arithmetic" k2="-1" k3="1"/>
<feColorMatrix type="matrix" values="0 0 0 0 1 0 0 0 0 1 0 0 0 0 1 0 0 0 0.45 0"/>
<feBlend mode="normal" in2="effect3_innerShadow_625_11714" result="effect4_innerShadow_625_11714"/>
</filter>
<filter id="filter1_diii_625_11714" x="0.631928" y="1.31583" width="22.4372" height="19.9671" filterUnits="userSpaceOnUse" color-interpolation-filters="sRGB">
<feFlood flood-opacity="0" result="BackgroundImageFix"/>
<feColorMatrix in="SourceAlpha" type="matrix" values="0 0 0 0 0 0 0 0 0 0 0 0 0 0 0 0 0 0 127 0" result="hardAlpha"/>
<feOffset dy="1.68417"/>
<feGaussianBlur stdDeviation="1.68417"/>
<feColorMatrix type="matrix" values="0 0 0 0 0 0 0 0 0 0 0 0 0 0 0 0 0 0 0.15 0"/>
<feBlend mode="normal" in2="BackgroundImageFix" result="effect1_dropShadow_625_11714"/>
<feBlend mode="normal" in="SourceGraphic" in2="effect1_dropShadow_625_11714" result="shape"/>
<feColorMatrix in="SourceAlpha" type="matrix" values="0 0 0 0 0 0 0 0 0 0 0 0 0 0 0 0 0 0 127 0" result="hardAlpha"/>
<feOffset dy="1.68417"/>
<feGaussianBlur stdDeviation="0.842083"/>
<feComposite in2="hardAlpha" operator="arithmetic" k2="-1" k3="1"/>
<feColorMatrix type="matrix" values="0 0 0 0 1 0 0 0 0 1 0 0 0 0 1 0 0 0 0.65 0"/>
<feBlend mode="normal" in2="shape" result="effect2_innerShadow_625_11714"/>
<feColorMatrix in="SourceAlpha" type="matrix" values="0 0 0 0 0 0 0 0 0 0 0 0 0 0 0 0 0 0 127 0" result="hardAlpha"/>
<feOffset dy="-1.68417"/>
<feGaussianBlur stdDeviation="0.842083"/>
<feComposite in2="hardAlpha" operator="arithmetic" k2="-1" k3="1"/>
<feColorMatrix type="matrix" values="0 0 0 0 0 0 0 0 0 0 0 0 0 0 0 0 0 0 0.42 0"/>
<feBlend mode="normal" in2="effect2_innerShadow_625_11714" result="effect3_innerShadow_625_11714"/>
<feColorMatrix in="SourceAlpha" type="matrix" values="0 0 0 0 0 0 0 0 0 0 0 0 0 0 0 0 0 0 127 0" result="hardAlpha"/>
<feOffset dy="0.842083"/>
<feGaussianBlur stdDeviation="0.421041"/>
<feComposite in2="hardAlpha" operator="arithmetic" k2="-1" k3="1"/>
<feColorMatrix type="matrix" values="0 0 0 0 1 0 0 0 0 1 0 0 0 0 1 0 0 0 0.45 0"/>
<feBlend mode="normal" in2="effect3_innerShadow_625_11714" result="effect4_innerShadow_625_11714"/>
</filter>
</defs>
</svg>
