<svg width="24" height="27" viewBox="0 0 24 27" fill="none" xmlns="http://www.w3.org/2000/svg">
<rect width="24" height="24" fill="white"/>
<g filter="url(#filter0_diii_613_28075)">
<path fill-rule="evenodd" clip-rule="evenodd" d="M11.6044 3.20312C11.9526 2.93229 12.4402 2.93229 12.7884 3.20312L20.0206 8.82812C20.2555 9.01081 20.3929 9.29172 20.3929 9.58929V18.4286C20.3929 19.1106 20.1219 19.7646 19.6397 20.2468C19.1575 20.7291 18.5034 21 17.8214 21H6.57143C5.88944 21 5.23539 20.7291 4.75315 20.2468C4.27092 19.7646 4 19.1106 4 18.4286V9.58929C4 9.29172 4.13738 9.01081 4.37227 8.82812L11.6044 3.20312ZM6.60742 9.53291C6.1791 9.86605 5.92857 10.3783 5.92857 10.9209V18.4286C5.92857 18.5991 5.9963 18.7626 6.11686 18.8831C6.23742 19.0037 6.40093 19.0714 6.57143 19.0714H17.8214C17.9919 19.0714 18.1554 19.0037 18.276 18.8831C18.3966 18.7626 18.4643 18.5991 18.4643 18.4286V10.9209C18.4643 10.3783 18.2138 9.86605 17.7854 9.53291L13.276 6.02556C12.641 5.53168 11.7519 5.53168 11.1169 6.02556L6.60742 9.53291Z" fill="#AEAEB7"/>
</g>
<g filter="url(#filter1_diii_613_28075)">
<path fill-rule="evenodd" clip-rule="evenodd" d="M8.82143 11.9994C8.82143 11.4669 9.25315 11.0352 9.78571 11.0352H14.6071C15.1397 11.0352 15.5714 11.4669 15.5714 11.9994V20.0352C15.5714 20.5677 15.1397 20.9994 14.6071 20.9994C14.0746 20.9994 13.6429 20.5677 13.6429 20.0352V14.4102C13.6429 13.6113 12.9953 12.9637 12.1964 12.9637C11.3976 12.9637 10.75 13.6113 10.75 14.4102V20.0352C10.75 20.5677 10.3183 20.9994 9.78571 20.9994C9.25315 20.9994 8.82143 20.5677 8.82143 20.0352V11.9994Z" fill="#AEAEB7"/>
</g>
<defs>
<filter id="filter0_diii_613_28075" x="0.483193" y="1.2416" width="23.4265" height="25.0336" filterUnits="userSpaceOnUse" color-interpolation-filters="sRGB">
<feFlood flood-opacity="0" result="BackgroundImageFix"/>
<feColorMatrix in="SourceAlpha" type="matrix" values="0 0 0 0 0 0 0 0 0 0 0 0 0 0 0 0 0 0 127 0" result="hardAlpha"/>
<feOffset dy="1.7584"/>
<feGaussianBlur stdDeviation="1.7584"/>
<feColorMatrix type="matrix" values="0 0 0 0 0 0 0 0 0 0 0 0 0 0 0 0 0 0 0.15 0"/>
<feBlend mode="normal" in2="BackgroundImageFix" result="effect1_dropShadow_613_28075"/>
<feBlend mode="normal" in="SourceGraphic" in2="effect1_dropShadow_613_28075" result="shape"/>
<feColorMatrix in="SourceAlpha" type="matrix" values="0 0 0 0 0 0 0 0 0 0 0 0 0 0 0 0 0 0 127 0" result="hardAlpha"/>
<feOffset dy="1.7584"/>
<feGaussianBlur stdDeviation="0.879202"/>
<feComposite in2="hardAlpha" operator="arithmetic" k2="-1" k3="1"/>
<feColorMatrix type="matrix" values="0 0 0 0 1 0 0 0 0 1 0 0 0 0 1 0 0 0 0.65 0"/>
<feBlend mode="normal" in2="shape" result="effect2_innerShadow_613_28075"/>
<feColorMatrix in="SourceAlpha" type="matrix" values="0 0 0 0 0 0 0 0 0 0 0 0 0 0 0 0 0 0 127 0" result="hardAlpha"/>
<feOffset dy="-1.7584"/>
<feGaussianBlur stdDeviation="0.879202"/>
<feComposite in2="hardAlpha" operator="arithmetic" k2="-1" k3="1"/>
<feColorMatrix type="matrix" values="0 0 0 0 0 0 0 0 0 0 0 0 0 0 0 0 0 0 0.42 0"/>
<feBlend mode="normal" in2="effect2_innerShadow_613_28075" result="effect3_innerShadow_613_28075"/>
<feColorMatrix in="SourceAlpha" type="matrix" values="0 0 0 0 0 0 0 0 0 0 0 0 0 0 0 0 0 0 127 0" result="hardAlpha"/>
<feOffset dy="0.879202"/>
<feGaussianBlur stdDeviation="0.439601"/>
<feComposite in2="hardAlpha" operator="arithmetic" k2="-1" k3="1"/>
<feColorMatrix type="matrix" values="0 0 0 0 1 0 0 0 0 1 0 0 0 0 1 0 0 0 0.45 0"/>
<feBlend mode="normal" in2="effect3_innerShadow_613_28075" result="effect4_innerShadow_613_28075"/>
</filter>
<filter id="filter1_diii_613_28075" x="5.30462" y="9.27675" width="13.7836" height="16.9975" filterUnits="userSpaceOnUse" color-interpolation-filters="sRGB">
<feFlood flood-opacity="0" result="BackgroundImageFix"/>
<feColorMatrix in="SourceAlpha" type="matrix" values="0 0 0 0 0 0 0 0 0 0 0 0 0 0 0 0 0 0 127 0" result="hardAlpha"/>
<feOffset dy="1.7584"/>
<feGaussianBlur stdDeviation="1.7584"/>
<feColorMatrix type="matrix" values="0 0 0 0 0 0 0 0 0 0 0 0 0 0 0 0 0 0 0.15 0"/>
<feBlend mode="normal" in2="BackgroundImageFix" result="effect1_dropShadow_613_28075"/>
<feBlend mode="normal" in="SourceGraphic" in2="effect1_dropShadow_613_28075" result="shape"/>
<feColorMatrix in="SourceAlpha" type="matrix" values="0 0 0 0 0 0 0 0 0 0 0 0 0 0 0 0 0 0 127 0" result="hardAlpha"/>
<feOffset dy="1.7584"/>
<feGaussianBlur stdDeviation="0.879202"/>
<feComposite in2="hardAlpha" operator="arithmetic" k2="-1" k3="1"/>
<feColorMatrix type="matrix" values="0 0 0 0 1 0 0 0 0 1 0 0 0 0 1 0 0 0 0.65 0"/>
<feBlend mode="normal" in2="shape" result="effect2_innerShadow_613_28075"/>
<feColorMatrix in="SourceAlpha" type="matrix" values="0 0 0 0 0 0 0 0 0 0 0 0 0 0 0 0 0 0 127 0" result="hardAlpha"/>
<feOffset dy="-1.7584"/>
<feGaussianBlur stdDeviation="0.879202"/>
<feComposite in2="hardAlpha" operator="arithmetic" k2="-1" k3="1"/>
<feColorMatrix type="matrix" values="0 0 0 0 0 0 0 0 0 0 0 0 0 0 0 0 0 0 0.42 0"/>
<feBlend mode="normal" in2="effect2_innerShadow_613_28075" result="effect3_innerShadow_613_28075"/>
<feColorMatrix in="SourceAlpha" type="matrix" values="0 0 0 0 0 0 0 0 0 0 0 0 0 0 0 0 0 0 127 0" result="hardAlpha"/>
<feOffset dy="0.879202"/>
<feGaussianBlur stdDeviation="0.439601"/>
<feComposite in2="hardAlpha" operator="arithmetic" k2="-1" k3="1"/>
<feColorMatrix type="matrix" values="0 0 0 0 1 0 0 0 0 1 0 0 0 0 1 0 0 0 0.45 0"/>
<feBlend mode="normal" in2="effect3_innerShadow_613_28075" result="effect4_innerShadow_613_28075"/>
</filter>
</defs>
</svg>
