<svg width="24" height="24" viewBox="0 0 24 24" fill="none" xmlns="http://www.w3.org/2000/svg">
<g clip-path="url(#clip0_705_15318)">
<g filter="url(#filter0_diii_705_15318)">
<path fill-rule="evenodd" clip-rule="evenodd" d="M5.32436 14.9318C6.17235 14.0713 7.32247 13.5879 8.52171 13.5879H15.4782C16.6775 13.5879 17.8276 14.0713 18.6756 14.9318C19.5236 15.7922 20 16.9592 20 18.1761V19.9408C20 20.5256 19.5328 20.9997 18.9565 20.9997C18.3802 20.9997 17.913 20.5256 17.913 19.9408V18.1761C17.913 17.5209 17.6565 16.8925 17.1999 16.4292C16.7433 15.9658 16.124 15.7055 15.4782 15.7055H8.52171C7.87596 15.7055 7.25667 15.9658 6.80006 16.4292C6.34345 16.8925 6.08693 17.5209 6.08693 18.1761V19.9408C6.08693 20.5256 5.61975 20.9997 5.04345 20.9997C4.46715 20.9997 3.99997 20.5256 3.99997 19.9408V18.1761C3.99997 16.9593 4.47637 15.7922 5.32436 14.9318Z" fill="#AEAEB7"/>
</g>
<g filter="url(#filter1_diii_705_15318)">
<path fill-rule="evenodd" clip-rule="evenodd" d="M12 5.11765C10.6553 5.11765 9.56523 6.22377 9.56523 7.58824C9.56523 8.9527 10.6553 10.0588 12 10.0588C13.3447 10.0588 14.4348 8.9527 14.4348 7.58824C14.4348 6.22377 13.3447 5.11765 12 5.11765ZM7.47827 7.58824C7.47827 5.05422 9.50272 3 12 3C14.4973 3 16.5217 5.05422 16.5217 7.58824C16.5217 10.1222 14.4973 12.1765 12 12.1765C9.50272 12.1765 7.47827 10.1222 7.47827 7.58824Z" fill="#AEAEB7"/>
</g>
</g>
<defs>
<filter id="filter0_diii_705_15318" x="-2.71677" y="10.2295" width="29.4335" height="20.8456" filterUnits="userSpaceOnUse" color-interpolation-filters="sRGB">
<feFlood flood-opacity="0" result="BackgroundImageFix"/>
<feColorMatrix in="SourceAlpha" type="matrix" values="0 0 0 0 0 0 0 0 0 0 0 0 0 0 0 0 0 0 127 0" result="hardAlpha"/>
<feOffset dy="3.35837"/>
<feGaussianBlur stdDeviation="3.35837"/>
<feColorMatrix type="matrix" values="0 0 0 0 0 0 0 0 0 0 0 0 0 0 0 0 0 0 0.15 0"/>
<feBlend mode="normal" in2="BackgroundImageFix" result="effect1_dropShadow_705_15318"/>
<feBlend mode="normal" in="SourceGraphic" in2="effect1_dropShadow_705_15318" result="shape"/>
<feColorMatrix in="SourceAlpha" type="matrix" values="0 0 0 0 0 0 0 0 0 0 0 0 0 0 0 0 0 0 127 0" result="hardAlpha"/>
<feOffset dy="3.35837"/>
<feGaussianBlur stdDeviation="1.67919"/>
<feComposite in2="hardAlpha" operator="arithmetic" k2="-1" k3="1"/>
<feColorMatrix type="matrix" values="0 0 0 0 1 0 0 0 0 1 0 0 0 0 1 0 0 0 0.65 0"/>
<feBlend mode="normal" in2="shape" result="effect2_innerShadow_705_15318"/>
<feColorMatrix in="SourceAlpha" type="matrix" values="0 0 0 0 0 0 0 0 0 0 0 0 0 0 0 0 0 0 127 0" result="hardAlpha"/>
<feOffset dy="-3.35837"/>
<feGaussianBlur stdDeviation="1.67919"/>
<feComposite in2="hardAlpha" operator="arithmetic" k2="-1" k3="1"/>
<feColorMatrix type="matrix" values="0 0 0 0 0 0 0 0 0 0 0 0 0 0 0 0 0 0 0.42 0"/>
<feBlend mode="normal" in2="effect2_innerShadow_705_15318" result="effect3_innerShadow_705_15318"/>
<feColorMatrix in="SourceAlpha" type="matrix" values="0 0 0 0 0 0 0 0 0 0 0 0 0 0 0 0 0 0 127 0" result="hardAlpha"/>
<feOffset dy="1.67919"/>
<feGaussianBlur stdDeviation="0.839593"/>
<feComposite in2="hardAlpha" operator="arithmetic" k2="-1" k3="1"/>
<feColorMatrix type="matrix" values="0 0 0 0 1 0 0 0 0 1 0 0 0 0 1 0 0 0 0.45 0"/>
<feBlend mode="normal" in2="effect3_innerShadow_705_15318" result="effect4_innerShadow_705_15318"/>
</filter>
<filter id="filter1_diii_705_15318" x="0.761529" y="-0.358371" width="22.477" height="22.6102" filterUnits="userSpaceOnUse" color-interpolation-filters="sRGB">
<feFlood flood-opacity="0" result="BackgroundImageFix"/>
<feColorMatrix in="SourceAlpha" type="matrix" values="0 0 0 0 0 0 0 0 0 0 0 0 0 0 0 0 0 0 127 0" result="hardAlpha"/>
<feOffset dy="3.35837"/>
<feGaussianBlur stdDeviation="3.35837"/>
<feColorMatrix type="matrix" values="0 0 0 0 0 0 0 0 0 0 0 0 0 0 0 0 0 0 0.15 0"/>
<feBlend mode="normal" in2="BackgroundImageFix" result="effect1_dropShadow_705_15318"/>
<feBlend mode="normal" in="SourceGraphic" in2="effect1_dropShadow_705_15318" result="shape"/>
<feColorMatrix in="SourceAlpha" type="matrix" values="0 0 0 0 0 0 0 0 0 0 0 0 0 0 0 0 0 0 127 0" result="hardAlpha"/>
<feOffset dy="3.35837"/>
<feGaussianBlur stdDeviation="1.67919"/>
<feComposite in2="hardAlpha" operator="arithmetic" k2="-1" k3="1"/>
<feColorMatrix type="matrix" values="0 0 0 0 1 0 0 0 0 1 0 0 0 0 1 0 0 0 0.65 0"/>
<feBlend mode="normal" in2="shape" result="effect2_innerShadow_705_15318"/>
<feColorMatrix in="SourceAlpha" type="matrix" values="0 0 0 0 0 0 0 0 0 0 0 0 0 0 0 0 0 0 127 0" result="hardAlpha"/>
<feOffset dy="-3.35837"/>
<feGaussianBlur stdDeviation="1.67919"/>
<feComposite in2="hardAlpha" operator="arithmetic" k2="-1" k3="1"/>
<feColorMatrix type="matrix" values="0 0 0 0 0 0 0 0 0 0 0 0 0 0 0 0 0 0 0.42 0"/>
<feBlend mode="normal" in2="effect2_innerShadow_705_15318" result="effect3_innerShadow_705_15318"/>
<feColorMatrix in="SourceAlpha" type="matrix" values="0 0 0 0 0 0 0 0 0 0 0 0 0 0 0 0 0 0 127 0" result="hardAlpha"/>
<feOffset dy="1.67919"/>
<feGaussianBlur stdDeviation="0.839593"/>
<feComposite in2="hardAlpha" operator="arithmetic" k2="-1" k3="1"/>
<feColorMatrix type="matrix" values="0 0 0 0 1 0 0 0 0 1 0 0 0 0 1 0 0 0 0.45 0"/>
<feBlend mode="normal" in2="effect3_innerShadow_705_15318" result="effect4_innerShadow_705_15318"/>
</filter>
<clipPath id="clip0_705_15318">
<rect width="24" height="24" fill="white"/>
</clipPath>
</defs>
</svg>
