<svg width="81" height="43" viewBox="0 0 81 43" fill="none" xmlns="http://www.w3.org/2000/svg">
<g clip-path="url(#clip0_557_26638)">
<path d="M2.47764 42.7191C1.68988 42.7191 1.08 42.4933 0.647997 42.0416C0.216 41.5901 0 40.9691 0 40.1788V11.4309C0 10.6407 0.216 10.0197 0.647997 9.56804C1.08 9.11647 1.68988 8.89062 2.47764 8.89062C3.24 8.89062 3.84988 9.11647 4.30729 9.56804C4.7647 10.0197 4.99341 10.6407 4.99341 11.4309V12.2777C6.0861 11.0922 7.21694 10.2314 8.3859 9.69506C9.58024 9.15881 10.927 8.89062 12.4264 8.89062C14.4085 8.89062 16.1365 9.32817 17.6104 10.2031C19.1096 11.0781 20.2532 12.3342 21.041 13.9712C21.8541 15.5801 22.2607 17.4853 22.2607 19.6869C22.2607 21.8604 21.8541 23.7656 21.041 25.4026C20.2277 27.0397 19.0715 28.2958 17.5723 29.1707C16.0729 30.0458 14.3068 30.4832 12.2739 30.4832C10.7492 30.4832 9.41508 30.2292 8.27155 29.7211C7.12802 29.1849 6.04798 28.3381 5.03153 27.1808L4.99341 40.1788C4.99341 40.9691 4.7647 41.5901 4.30729 42.0416C3.84988 42.4933 3.24 42.7191 2.47764 42.7191ZM11.2447 26.08C13.1252 26.08 14.5863 25.5296 15.6283 24.4288C16.6955 23.2999 17.2292 21.7192 17.2292 19.6869C17.2292 17.6547 16.6955 16.0882 15.6283 14.9874C14.5863 13.8584 13.1252 13.2938 11.2447 13.2938C9.28798 13.2938 7.75059 13.8725 6.63249 15.0297C5.53977 16.1588 4.99341 17.7112 4.99341 19.6869C4.99341 21.6628 5.53977 23.2293 6.63249 24.3865C7.75059 25.5155 9.28798 26.08 11.2447 26.08ZM37.6918 30.4832C36.904 30.4832 36.2942 30.2575 35.8622 29.8058C35.4301 29.3543 35.2142 28.7333 35.2142 27.9429V11.4309C35.2142 10.6124 35.4174 9.99143 35.8241 9.56804C36.256 9.11647 36.8532 8.89062 37.6156 8.89062C38.3779 8.89062 38.9751 9.11647 39.4071 9.56804C39.8391 10.0197 40.0551 10.6407 40.0551 11.4309V12.6587C41.8593 10.1467 44.3243 8.89062 47.4499 8.89062C49.8895 8.89062 51.808 9.75155 53.2057 11.4733C54.6287 13.1668 55.3403 15.4813 55.3403 18.4168V27.9429C55.3403 28.7333 55.1116 29.3543 54.6542 29.8058C54.1968 30.2575 53.5869 30.4832 52.8245 30.4832C52.0367 30.4832 51.4269 30.2575 50.9949 29.8058C50.5628 29.3543 50.3469 28.7333 50.3469 27.9429V18.4168C50.3469 16.8079 49.9911 15.5519 49.2796 14.6487C48.568 13.7455 47.577 13.2938 46.3064 13.2938C44.3751 13.2938 42.8758 13.9289 41.8085 15.1991C40.7412 16.441 40.2076 18.191 40.2076 20.449V27.9429C40.2076 28.7333 39.9789 29.3543 39.5215 29.8058C39.0641 30.2575 38.4542 30.4832 37.6918 30.4832ZM69.6435 40.6445C67.6614 40.6445 65.8318 40.3199 64.1546 39.6707C62.5024 39.0215 61.2064 38.1324 60.2666 37.0034C59.9104 36.58 59.7329 36.1002 59.7329 35.5639C59.7329 34.8583 60.0379 34.2232 60.6478 33.6586C61.0289 33.3199 61.4351 33.1506 61.8675 33.1506C62.528 33.1506 63.2648 33.5599 64.0783 34.3784C64.6882 34.9994 65.4506 35.4792 66.3654 35.8179C67.3052 36.1848 68.3094 36.3683 69.3767 36.3683C71.3588 36.3683 72.896 35.705 73.9889 34.3784C75.0812 33.0518 75.6024 31.2172 75.5518 28.8744L75.5136 27.1808C74.6494 28.3099 73.6328 29.1426 72.4642 29.6788C71.3207 30.2151 69.9103 30.4832 68.2332 30.4832C65.1075 30.4832 62.668 29.5377 60.9146 27.6466C59.161 25.7272 58.2843 23.074 58.2843 19.6869C58.2843 16.2999 59.1737 13.6608 60.9527 11.7696C62.7567 9.85032 65.26 8.89062 68.4619 8.89062C69.7829 8.89062 71.0539 9.18699 72.2736 9.77973C73.4934 10.3725 74.5857 11.2051 75.5518 12.2777V11.4309C75.5518 10.6407 75.7805 10.0197 76.2379 9.56804C76.6953 9.11647 77.3052 8.89062 78.0675 8.89062C78.8299 8.89062 79.4267 9.11647 79.859 9.56804C80.3165 9.99143 80.5452 10.6124 80.5452 11.4309V28.8744C80.5452 31.1325 80.1003 33.1506 79.2111 34.9288C78.3469 36.707 77.089 38.1042 75.4374 39.1203C73.8109 40.1364 71.8794 40.6445 69.6435 40.6445ZM69.2242 26.08C71.2063 26.08 72.7561 25.5155 73.8746 24.3865C74.9925 23.2575 75.5518 21.691 75.5518 19.6869C75.5518 17.6829 74.9925 16.1164 73.8746 14.9874C72.7561 13.8584 71.2063 13.2938 69.2242 13.2938C67.369 13.2938 65.9205 13.8584 64.8788 14.9874C63.8365 16.1164 63.316 17.6829 63.316 19.6869C63.316 21.691 63.8365 23.2575 64.8788 24.3865C65.9205 25.5155 67.369 26.08 69.2242 26.08Z" fill="#F9FAFB"/>
<path d="M27.8213 11.9668C28.5837 11.9668 29.1937 12.1926 29.6511 12.6442C30.1085 13.0958 30.3371 13.7169 30.3371 14.5071V28.4041H30.3316L28.0812 33.0315C27.9838 33.2319 27.6916 33.2319 27.5941 33.0315L25.3438 28.4041V14.5071C25.3438 13.7169 25.5597 13.0958 25.9917 12.6442C26.4237 12.1926 27.0336 11.9668 27.8213 11.9668Z" fill="#FF6E79"/>
<g filter="url(#filter0_dii_557_26638)">
<path d="M27.905 0C29.8364 1.16985e-05 31.4083 0.961929 31.4623 2.16125C31.4631 2.18474 31.4636 2.20833 31.4637 2.23197C31.4637 2.2349 31.4636 2.23785 31.4635 2.24078C31.4635 3.16057 30.8907 3.97572 30.008 4.48113V6.62184C31.1721 7.10946 31.9492 7.98968 31.9492 8.99458C31.9492 8.99748 31.949 9.00046 31.949 9.00335C31.9489 9.02702 31.9484 9.05051 31.9475 9.07401C31.8862 10.2734 30.0998 11.2352 27.905 11.2352C25.7102 11.2352 23.9238 10.2734 23.8625 9.07401C23.8615 9.05051 23.861 9.02702 23.8609 9.00335C23.8609 9.00046 23.8612 8.99748 23.8612 8.99458C23.8612 7.98968 24.638 7.10946 25.802 6.62184V4.48122C24.9193 3.97581 24.3462 3.16061 24.3462 2.24078C24.3462 2.24457 24.3467 2.24838 24.3468 2.25217C24.3467 2.24545 24.3463 2.2387 24.3463 2.23197C24.3464 2.20833 24.3468 2.18474 24.3477 2.16125C24.4016 0.961929 25.9736 9.32578e-06 27.905 0Z" fill="#FF6E79"/>
</g>
</g>
<defs>
<filter id="filter0_dii_557_26638" x="23.5946" y="-0.266284" width="9.15351" height="12.2995" filterUnits="userSpaceOnUse" color-interpolation-filters="sRGB">
<feFlood flood-opacity="0" result="BackgroundImageFix"/>
<feColorMatrix in="SourceAlpha" type="matrix" values="0 0 0 0 0 0 0 0 0 0 0 0 0 0 0 0 0 0 127 0" result="hardAlpha"/>
<feOffset dx="0.266284" dy="0.266284"/>
<feGaussianBlur stdDeviation="0.266284"/>
<feComposite in2="hardAlpha" operator="out"/>
<feColorMatrix type="matrix" values="0 0 0 0 0.427451 0 0 0 0 0.447059 0 0 0 0 0.501961 0 0 0 0.3 0"/>
<feBlend mode="normal" in2="BackgroundImageFix" result="effect1_dropShadow_557_26638"/>
<feBlend mode="normal" in="SourceGraphic" in2="effect1_dropShadow_557_26638" result="shape"/>
<feColorMatrix in="SourceAlpha" type="matrix" values="0 0 0 0 0 0 0 0 0 0 0 0 0 0 0 0 0 0 127 0" result="hardAlpha"/>
<feOffset dx="-0.532568" dy="-0.133142"/>
<feGaussianBlur stdDeviation="0.133142"/>
<feComposite in2="hardAlpha" operator="arithmetic" k2="-1" k3="1"/>
<feColorMatrix type="matrix" values="0 0 0 0 0.643079 0 0 0 0 0.0291351 0 0 0 0 0.0757102 0 0 0 0.4 0"/>
<feBlend mode="normal" in2="shape" result="effect2_innerShadow_557_26638"/>
<feColorMatrix in="SourceAlpha" type="matrix" values="0 0 0 0 0 0 0 0 0 0 0 0 0 0 0 0 0 0 127 0" result="hardAlpha"/>
<feOffset dx="0.532568" dy="0.133142"/>
<feGaussianBlur stdDeviation="0.133142"/>
<feComposite in2="hardAlpha" operator="arithmetic" k2="-1" k3="1"/>
<feColorMatrix type="matrix" values="0 0 0 0 1 0 0 0 0 1 0 0 0 0 1 0 0 0 0.4 0"/>
<feBlend mode="normal" in2="effect2_innerShadow_557_26638" result="effect3_innerShadow_557_26638"/>
</filter>
<clipPath id="clip0_557_26638">
<rect width="81" height="43" fill="white"/>
</clipPath>
</defs>
</svg>
