<svg width="75" height="40" viewBox="0 0 75 40" fill="none" xmlns="http://www.w3.org/2000/svg">
<g clip-path="url(#clip0_737_7689)">
<path d="M2.29411 39.7388C1.56471 39.7388 1 39.5288 0.599998 39.1087C0.2 38.6886 0 38.1109 0 37.3757V10.6336C0 9.89845 0.2 9.32079 0.599998 8.90066C1 8.4806 1.56471 8.27051 2.29411 8.27051C3 8.27051 3.5647 8.4806 3.98823 8.90066C4.41176 9.32079 4.62353 9.89845 4.62353 10.6336V11.4213C5.63528 10.3185 6.68235 9.51771 7.76473 9.01882C8.87059 8.51998 10.1176 8.27051 11.5059 8.27051C13.3412 8.27051 14.9412 8.67752 16.3059 9.49143C17.6941 10.3054 18.7529 11.4738 19.4824 12.9967C20.2353 14.4933 20.6118 16.2656 20.6118 18.3136C20.6118 20.3354 20.2353 22.1077 19.4824 23.6305C18.7294 25.1534 17.6588 26.3218 16.2706 27.1357C14.8823 27.9497 13.2471 28.3567 11.3647 28.3567C9.95296 28.3567 8.71767 28.1204 7.65884 27.6477C6.60002 27.1489 5.59998 26.3612 4.65882 25.2847L4.62353 37.3757C4.62353 38.1109 4.41176 38.6886 3.98823 39.1087C3.5647 39.5288 3 39.7388 2.29411 39.7388ZM10.4118 24.2607C12.1529 24.2607 13.5059 23.7487 14.4706 22.7247C15.4588 21.6744 15.953 20.204 15.953 18.3136C15.953 16.4231 15.4588 14.9659 14.4706 13.9419C13.5059 12.8917 12.1529 12.3665 10.4118 12.3665C8.59998 12.3665 7.17647 12.9048 6.1412 13.9813C5.12941 15.0316 4.62353 16.4757 4.62353 18.3136C4.62353 20.1516 5.12941 21.6088 6.1412 22.6853C7.17647 23.7356 8.59998 24.2607 10.4118 24.2607ZM34.8998 28.3567C34.1704 28.3567 33.6057 28.1466 33.2057 27.7265C32.8057 27.3064 32.6057 26.7288 32.6057 25.9936V10.6336C32.6057 9.87217 32.7939 9.29451 33.1704 8.90066C33.5704 8.4806 34.1234 8.27051 34.8292 8.27051C35.5351 8.27051 36.088 8.4806 36.4881 8.90066C36.8881 9.32079 37.0881 9.89845 37.0881 10.6336V11.7757C38.7586 9.43894 41.041 8.27051 43.9351 8.27051C46.194 8.27051 47.9704 9.07137 49.2645 10.673C50.5822 12.2484 51.241 14.4014 51.241 17.132V25.9936C51.241 26.7288 51.0292 27.3064 50.6057 27.7265C50.1822 28.1466 49.6175 28.3567 48.9116 28.3567C48.1822 28.3567 47.6175 28.1466 47.2175 27.7265C46.8174 27.3064 46.6175 26.7288 46.6175 25.9936V17.132C46.6175 15.6354 46.288 14.4671 45.6292 13.6268C44.9704 12.7866 44.0528 12.3665 42.8763 12.3665C41.0881 12.3665 39.6998 12.9573 38.7116 14.1388C37.7234 15.2941 37.2292 16.922 37.2292 19.0225V25.9936C37.2292 26.7288 37.0175 27.3064 36.594 27.7265C36.1704 28.1466 35.6057 28.3567 34.8998 28.3567ZM64.4847 37.809C62.6494 37.809 60.9553 37.5071 59.4024 36.9031C57.8726 36.2992 56.6726 35.4722 55.8024 34.4219C55.4726 34.028 55.3083 33.5817 55.3083 33.0828C55.3083 32.4264 55.5906 31.8357 56.1553 31.3105C56.5083 30.9954 56.8844 30.8379 57.2847 30.8379C57.8963 30.8379 58.5785 31.2186 59.3318 31.98C59.8965 32.5577 60.6024 33.004 61.4495 33.3191C62.3197 33.6605 63.2494 33.8311 64.2377 33.8311C66.073 33.8311 67.4963 33.2141 68.5083 31.98C69.5197 30.746 70.0022 29.0394 69.9553 26.86L69.92 25.2847C69.1199 26.3349 68.1785 27.1095 67.0965 27.6084C66.0377 28.1072 64.7318 28.3567 63.1789 28.3567C60.2847 28.3567 58.0259 27.4771 56.4024 25.7179C54.7787 23.9325 53.9669 21.4644 53.9669 18.3136C53.9669 15.1628 54.7904 12.7079 56.4377 10.9487C58.1081 9.16325 60.4259 8.27051 63.3906 8.27051C64.6138 8.27051 65.7906 8.5462 66.92 9.09758C68.0494 9.64897 69.0608 10.4236 69.9553 11.4213V10.6336C69.9553 9.89845 70.1671 9.32079 70.5906 8.90066C71.0142 8.4806 71.5789 8.27051 72.2847 8.27051C72.9906 8.27051 73.5432 8.4806 73.9436 8.90066C74.3671 9.29451 74.5789 9.87217 74.5789 10.6336V26.86C74.5789 28.9606 74.1669 30.8379 73.3436 32.492C72.5434 34.1462 71.3787 35.4459 69.8494 36.3911C68.3434 37.3364 66.555 37.809 64.4847 37.809ZM64.0965 24.2607C65.9318 24.2607 67.3667 23.7356 68.4024 22.6853C69.4375 21.6351 69.9553 20.1778 69.9553 18.3136C69.9553 16.4494 69.4375 14.9922 68.4024 13.9419C67.3667 12.8917 65.9318 12.3665 64.0965 12.3665C62.3787 12.3665 61.0375 12.8917 60.073 13.9419C59.1079 14.9922 58.6259 16.4494 58.6259 18.3136C58.6259 20.1778 59.1079 21.6351 60.073 22.6853C61.0375 23.7356 62.3787 24.2607 64.0965 24.2607Z" fill="#9CA3AF"/>
<path d="M25.7604 11.1309C26.4663 11.1309 27.0311 11.3409 27.4546 11.761C27.8781 12.1811 28.0898 12.7588 28.0898 13.494V26.4214H28.0847L26.001 30.726C25.9108 30.9124 25.6402 30.9124 25.55 30.726L23.4663 26.4214V13.494C23.4663 12.7588 23.6662 12.1811 24.0663 11.761C24.4662 11.3409 25.031 11.1309 25.7604 11.1309Z" fill="#FF6E79"/>
<g filter="url(#filter0_dii_737_7689)">
<path d="M25.8379 0C27.6262 1.08824e-05 29.0817 0.894817 29.1316 2.01046C29.1324 2.03232 29.1329 2.05426 29.133 2.07625C29.1329 2.07897 29.1328 2.08172 29.1328 2.08444C29.1328 2.94006 28.6024 3.69835 27.7851 4.1685V6.15985C28.8629 6.61345 29.5825 7.43226 29.5825 8.36705C29.5825 8.36975 29.5823 8.37252 29.5823 8.37521C29.5822 8.39723 29.5818 8.41908 29.5809 8.44094C29.5241 9.55661 27.8701 10.4514 25.8379 10.4514C23.8056 10.4514 22.1516 9.55661 22.0948 8.44094C22.0939 8.41908 22.0934 8.39723 22.0933 8.37521C22.0934 8.37252 22.0936 8.36975 22.0936 8.36705C22.0936 7.43226 22.8128 6.61345 23.8906 6.15985V4.16858C23.0733 3.69843 22.5427 2.9401 22.5426 2.08444C22.5427 2.08798 22.5431 2.09151 22.5432 2.09504C22.5431 2.08879 22.5428 2.08251 22.5427 2.07625C22.5428 2.05426 22.5432 2.03232 22.544 2.01046C22.594 0.894817 24.0495 8.67515e-06 25.8379 0Z" fill="#FF6E79"/>
</g>
</g>
<defs>
<filter id="filter0_dii_737_7689" x="21.827" y="-0.266284" width="8.55439" height="11.5163" filterUnits="userSpaceOnUse" color-interpolation-filters="sRGB">
<feFlood flood-opacity="0" result="BackgroundImageFix"/>
<feColorMatrix in="SourceAlpha" type="matrix" values="0 0 0 0 0 0 0 0 0 0 0 0 0 0 0 0 0 0 127 0" result="hardAlpha"/>
<feOffset dx="0.266284" dy="0.266284"/>
<feGaussianBlur stdDeviation="0.266284"/>
<feComposite in2="hardAlpha" operator="out"/>
<feColorMatrix type="matrix" values="0 0 0 0 0.427451 0 0 0 0 0.447059 0 0 0 0 0.501961 0 0 0 0.3 0"/>
<feBlend mode="normal" in2="BackgroundImageFix" result="effect1_dropShadow_737_7689"/>
<feBlend mode="normal" in="SourceGraphic" in2="effect1_dropShadow_737_7689" result="shape"/>
<feColorMatrix in="SourceAlpha" type="matrix" values="0 0 0 0 0 0 0 0 0 0 0 0 0 0 0 0 0 0 127 0" result="hardAlpha"/>
<feOffset dx="-0.532568" dy="-0.133142"/>
<feGaussianBlur stdDeviation="0.133142"/>
<feComposite in2="hardAlpha" operator="arithmetic" k2="-1" k3="1"/>
<feColorMatrix type="matrix" values="0 0 0 0 0.643079 0 0 0 0 0.0291351 0 0 0 0 0.0757102 0 0 0 0.4 0"/>
<feBlend mode="normal" in2="shape" result="effect2_innerShadow_737_7689"/>
<feColorMatrix in="SourceAlpha" type="matrix" values="0 0 0 0 0 0 0 0 0 0 0 0 0 0 0 0 0 0 127 0" result="hardAlpha"/>
<feOffset dx="0.532568" dy="0.133142"/>
<feGaussianBlur stdDeviation="0.133142"/>
<feComposite in2="hardAlpha" operator="arithmetic" k2="-1" k3="1"/>
<feColorMatrix type="matrix" values="0 0 0 0 1 0 0 0 0 1 0 0 0 0 1 0 0 0 0.4 0"/>
<feBlend mode="normal" in2="effect2_innerShadow_737_7689" result="effect3_innerShadow_737_7689"/>
</filter>
<clipPath id="clip0_737_7689">
<rect width="75" height="40" fill="white"/>
</clipPath>
</defs>
</svg>
